<svg width="256" height="256" viewBox="0 0 256 256" fill="none" xmlns="http://www.w3.org/2000/svg">
  <rect width="256" height="256" rx="56" fill="#111827"/>
  <path d="M64 84C64 72.9543 72.9543 64 84 64H172C183.046 64 192 72.9543 192 84V92H64V84Z" fill="#38BDF8"/>
  <path d="M64 108H192V124C192 135.046 183.046 144 172 144H84C72.9543 144 64 135.046 64 124V108Z" fill="#F8FAFC"/>
  <path d="M82 164C82 158.477 86.4772 154 92 154H164C169.523 154 174 158.477 174 164V172H82V164Z" fill="#84CC16"/>
  <path d="M82 180H174V182C174 193.046 165.046 202 154 202H102C90.9543 202 82 193.046 82 182V180Z" fill="#F8FAFC"/>
  <path d="M106 64L150 202" stroke="#111827" stroke-width="14" stroke-linecap="round"/>
  <circle cx="106" cy="108" r="9" fill="#111827"/>
  <circle cx="128" cy="168" r="9" fill="#111827"/>
  <circle cx="150" cy="124" r="9" fill="#111827"/>
</svg>